<?xml version="1.0" standalone="no"?>
<!DOCTYPE svg PUBLIC "-//W3C//DTD SVG 20010904//EN"
 "http://www.w3.org/TR/2001/REC-SVG-20010904/DTD/svg10.dtd">
<svg version="1.0" xmlns="http://www.w3.org/2000/svg"
 width="849.000000pt" height="1280.000000pt" viewBox="0 0 849.000000 1280.000000"
 preserveAspectRatio="xMidYMid meet">
<g transform="translate(0.000000,1280.000000) scale(0.100000,-0.100000)"
fill="#000000" stroke="none">
<path d="M4235 12780 c-3 -5 -6 -220 -5 -478 l0 -470 -40 -48 c-119 -144 -207
-436 -264 -874 -42 -323 -65 -733 -86 -1529 l-11 -384 -158 -326 c-247 -508
-315 -698 -356 -996 -19 -136 -14 -126 -155 -295 -205 -244 -692 -843 -697
-856 -8 -21 117 -373 136 -383 9 -5 162 -55 341 -111 179 -56 331 -107 337
-112 8 -7 13 -37 13 -85 0 -74 -2 -80 -177 -511 -113 -277 -187 -445 -204
-463 -34 -36 -72 -45 -128 -30 -25 7 -595 215 -1266 463 -671 248 -1248 455
-1281 461 -120 21 -186 -29 -219 -164 -16 -63 -16 -72 5 -195 38 -232 91 -392
193 -587 32 -61 64 -107 82 -120 17 -12 226 -170 465 -352 239 -183 793 -603
1230 -934 437 -332 796 -609 798 -616 2 -7 -99 -446 -224 -976 -125 -530 -227
-975 -227 -989 0 -14 30 -109 68 -212 66 -184 68 -188 99 -193 17 -3 181 -19
365 -36 242 -22 336 -27 341 -19 4 6 10 79 13 163 7 150 17 194 36 146 36 -95
82 -164 104 -156 23 7 76 98 101 174 35 108 46 179 47 302 0 105 9 155 22 134
4 -6 14 -73 22 -150 8 -76 17 -153 20 -170 l6 -33 300 0 c231 0 301 3 304 13
2 6 11 102 20 212 23 297 26 315 41 315 16 0 21 -22 28 -120 9 -154 28 -395
32 -407 3 -10 72 -13 303 -13 l301 0 5 23 c3 12 14 91 24 176 19 144 25 171
36 160 2 -3 9 -187 14 -409 6 -223 15 -425 20 -450 25 -118 98 -255 136 -255
26 0 86 118 120 239 14 50 27 91 28 93 2 1 158 17 348 34 189 16 353 34 365
39 16 6 36 52 87 194 37 103 67 194 67 203 0 9 -104 453 -230 987 -127 533
-230 975 -228 982 2 7 347 272 768 590 421 317 974 737 1230 933 256 197 479
367 496 379 23 16 50 59 97 154 99 201 146 349 182 578 16 99 16 110 0 170
-23 90 -49 129 -103 152 -35 16 -57 19 -98 14 -32 -4 -533 -183 -1300 -466
-687 -254 -1270 -463 -1295 -467 -43 -5 -49 -3 -82 28 -31 29 -63 98 -217 470
-179 433 -180 437 -180 511 0 48 5 79 13 86 6 5 164 57 350 115 187 58 341
108 344 111 3 3 34 87 69 187 58 166 63 185 50 204 -13 20 -494 609 -719 880
-55 66 -103 129 -107 140 -5 11 -16 70 -25 130 -44 295 -122 509 -376 1035
-112 232 -133 284 -136 330 -1 30 -10 289 -18 575 -17 577 -27 763 -56 1065
-56 576 -139 900 -280 1087 l-39 52 0 465 c0 255 -3 471 -6 480 -7 18 -20 21
-29 6z m56 -1042 c85 -118 161 -349 208 -633 62 -379 83 -686 116 -1695 l14
-435 97 -195 c271 -547 356 -775 410 -1090 13 -80 27 -153 30 -163 3 -10 29
-45 58 -77 97 -108 636 -770 636 -780 0 -5 4 -10 8 -10 14 0 122 -138 122
-155 0 -26 -101 -308 -115 -324 -7 -7 -168 -62 -356 -121 l-344 -107 -3 -128
c-2 -97 1 -132 11 -144 8 -9 89 -198 181 -421 92 -223 177 -416 189 -428 12
-13 39 -32 59 -42 31 -15 45 -16 80 -8 24 6 574 207 1223 446 649 239 1189
437 1200 439 11 3 40 15 65 26 32 15 65 22 113 22 65 0 70 -2 97 -32 41 -46
53 -101 47 -213 -8 -120 -27 -214 -74 -360 -43 -132 -159 -368 -188 -384 -11
-6 -24 -16 -30 -22 -19 -22 -874 -674 -883 -674 -5 0 -16 -8 -23 -19 -13 -17
-1492 -1137 -1551 -1173 -18 -12 -28 -26 -28 -42 0 -14 104 -460 230 -993 127
-532 230 -974 230 -983 0 -26 -123 -362 -135 -366 -5 -2 -172 -19 -369 -37
l-359 -32 -23 -94 c-29 -116 -77 -223 -97 -215 -13 5 -67 110 -81 159 -18 61
-25 215 -31 625 -3 250 -8 465 -11 478 -8 37 -79 24 -79 -15 -2 -93 -48 -484
-59 -502 -9 -15 -522 -15 -531 -1 -4 6 -8 50 -11 98 -2 48 -11 150 -20 227 -8
77 -14 151 -12 165 1 14 -1 31 -5 38 -9 13 -75 16 -93 4 -6 -4 -14 -50 -17
-102 -6 -88 -21 -261 -33 -388 l-5 -52 -267 2 -266 3 -7 35 c-4 19 -10 70 -12
112 -3 43 -8 81 -11 86 -3 5 -8 47 -12 93 -15 206 -14 200 -39 211 -51 23 -55
12 -55 -152 0 -279 -22 -436 -77 -562 -29 -66 -47 -77 -69 -43 -25 38 -71 184
-85 269 -12 75 -23 97 -39 80 -4 -5 -13 -128 -19 -274 -6 -145 -15 -268 -19
-272 -12 -12 -655 51 -668 65 -7 7 -39 89 -72 183 l-61 171 230 977 c126 537
229 988 229 1001 0 17 -10 31 -28 43 -50 31 -1516 1143 -1537 1166 -12 12 -27
25 -35 28 -16 6 -869 653 -885 672 -6 6 -19 16 -30 22 -11 6 -50 69 -86 141
-105 205 -163 405 -175 598 -8 117 4 171 46 218 27 30 32 32 97 31 45 0 85 -7
118 -21 128 -53 2435 -898 2476 -907 56 -11 88 -4 129 30 42 36 54 63 225 484
82 201 155 372 162 381 10 12 13 48 11 144 l-3 128 -344 108 c-189 59 -347
111 -352 116 -4 4 -33 81 -64 171 l-57 163 59 70 c32 39 69 85 83 102 14 18
117 144 230 281 214 260 269 327 359 439 30 37 58 67 63 67 19 0 46 83 58 180
7 58 27 164 45 235 60 233 121 384 333 815 l140 285 12 440 c10 375 23 692 45
1085 18 315 74 681 141 913 50 176 144 357 184 357 6 0 24 -19 41 -42z"/>
<path d="M4179 10023 c-51 -47 -74 -92 -99 -195 -19 -80 -43 -278 -35 -286 2
-2 35 3 74 12 89 20 163 20 252 0 39 -9 73 -14 75 -11 8 8 -16 218 -33 289
-30 127 -106 228 -169 228 -13 0 -42 -16 -65 -37z"/>
<path d="M4150 9484 c-14 -3 -45 -12 -69 -21 l-44 -16 6 -176 c8 -249 69 -717
97 -745 13 -13 128 -20 175 -12 45 9 48 17 79 199 27 155 51 388 62 594 l7
133 -49 22 c-37 16 -72 22 -144 24 -52 1 -106 0 -120 -2z"/>
<path d="M4991 2394 c0 -11 3 -14 6 -6 3 7 2 16 -1 19 -3 4 -6 -2 -5 -13z"/>
</g>
</svg>
