<?xml version="1.0" standalone="no"?>
<!DOCTYPE svg PUBLIC "-//W3C//DTD SVG 20010904//EN"
 "http://www.w3.org/TR/2001/REC-SVG-20010904/DTD/svg10.dtd">
<svg version="1.0" xmlns="http://www.w3.org/2000/svg"
 width="849.000000pt" height="1280.000000pt" viewBox="0 0 849.000000 1280.000000"
 preserveAspectRatio="xMidYMid meet">
<metadata>
Created by potrace 1.15, written by Peter Selinger 2001-2017
</metadata>
<g transform="translate(0.000000,1280.000000) scale(0.100000,-0.100000)"
fill="#000000" stroke="none">
<path d="M4227 12793 c-4 -3 -7 -73 -7 -154 0 -108 -3 -149 -12 -152 -10 -4
-10 -6 0 -6 9 -1 12 -73 12 -328 l0 -327 -29 -31 c-100 -103 -188 -350 -245
-692 -62 -366 -92 -817 -116 -1737 l-10 -368 -159 -327 c-247 -505 -317 -708
-362 -1036 l-13 -90 -96 -115 c-259 -308 -740 -903 -740 -914 0 -23 121 -361
134 -374 7 -7 165 -61 352 -120 l339 -107 3 -79 3 -79 -178 -435 c-193 -472
-204 -492 -271 -492 -42 0 -77 13 -637 220 -225 83 -581 215 -790 292 -209 77
-477 176 -595 220 -552 204 -541 201 -610 202 -183 3 -237 -152 -169 -485 28
-143 72 -267 151 -427 54 -110 79 -149 107 -170 20 -15 243 -185 496 -377 253
-193 804 -611 1223 -929 420 -319 766 -585 769 -591 2 -7 -99 -454 -226 -993
l-230 -979 70 -194 c39 -107 74 -198 79 -203 5 -5 172 -24 371 -43 273 -25
365 -31 375 -22 10 8 14 41 15 118 1 96 14 251 18 209 2 -26 48 -119 75 -153
30 -37 46 -30 93 38 64 95 103 258 103 436 0 68 2 122 5 119 3 -3 14 -80 24
-170 10 -91 21 -170 25 -176 11 -18 600 -17 613 0 6 7 18 110 27 228 21 270
26 311 37 304 5 -3 9 -33 9 -67 1 -34 5 -93 10 -132 5 -38 12 -126 16 -195 4
-69 11 -131 17 -138 13 -16 602 -18 613 -1 9 14 44 263 44 313 0 22 2 37 5 34
3 -2 9 -184 14 -404 9 -350 12 -409 30 -477 36 -137 111 -254 149 -231 27 17
90 151 114 246 l23 87 50 6 c27 3 191 18 363 34 172 16 316 31 319 35 9 9 143
385 143 402 0 13 -80 353 -396 1680 -35 149 -64 277 -64 285 0 8 8 19 18 25
34 22 1624 1225 2027 1534 226 173 426 327 445 341 26 19 52 59 92 140 105
210 154 361 184 563 33 225 -8 344 -128 377 -61 16 -113 5 -303 -66 -1162
-433 -2353 -865 -2381 -865 -68 0 -79 20 -274 492 l-181 436 3 79 3 78 339
106 c186 58 345 110 352 115 8 5 44 94 80 197 l66 188 -59 72 c-33 40 -192
233 -354 431 -162 197 -325 396 -362 442 l-69 83 -24 143 c-54 317 -120 499
-381 1043 l-130 270 -17 570 c-18 625 -27 793 -57 1115 -53 559 -145 912 -283
1093 l-36 47 0 471 c0 340 -3 475 -11 485 -12 15 -31 18 -42 7z m68 -1078
c122 -184 198 -510 253 -1083 8 -81 8 -83 -12 -78 -12 4 -61 13 -111 22 -107
19 -328 14 -415 -10 -30 -9 -60 -16 -66 -16 -11 0 -9 27 21 290 41 353 110
642 196 811 29 58 75 119 89 119 4 0 25 -25 45 -55z m140 -1156 c111 -19 125
-26 125 -65 0 -19 -2 -34 -6 -34 -3 0 -37 8 -77 17 -100 25 -362 24 -464 0
-40 -9 -74 -17 -77 -17 -12 0 -6 58 7 67 52 42 326 60 492 32z m-5 -90 c36 -6
82 -15 103 -21 33 -10 37 -15 37 -45 0 -18 5 -145 10 -281 6 -136 17 -449 24
-695 8 -247 16 -451 19 -453 3 -3 -3 -29 -13 -57 -44 -125 -84 -423 -99 -737
-17 -352 -24 -863 -12 -856 7 5 11 88 11 259 1 587 34 1014 100 1281 11 43 20
82 21 85 0 7 167 -334 254 -519 128 -276 214 -546 250 -785 8 -60 24 -123 33
-140 16 -28 17 -89 15 -783 -1 -550 -4 -757 -13 -767 -7 -9 -11 -57 -10 -137
1 -101 -3 -143 -24 -233 -70 -299 -111 -760 -118 -1330 -5 -393 1 -905 11
-905 4 0 6 206 3 463 -6 614 12 1050 59 1422 20 160 60 381 78 426 l9 24 10
-25 c156 -386 339 -811 360 -834 15 -16 41 -35 58 -42 l32 -13 7 -908 c4 -499
8 -957 9 -1018 3 -105 13 -155 229 -1058 125 -522 227 -957 227 -967 0 -15
-115 -349 -123 -357 -3 -3 -653 -63 -682 -63 l-25 0 0 485 0 485 85 0 c98 0
93 5 115 -113 7 -37 16 -69 20 -72 4 -3 20 29 35 70 15 41 30 75 34 75 4 0 20
-14 36 -30 16 -17 35 -30 42 -30 15 0 43 53 69 130 25 75 23 268 -4 460 -12
80 -53 426 -92 770 -39 344 -75 635 -80 647 -11 27 -42 30 -64 7 -14 -14 -16
-115 -16 -960 l0 -944 -90 0 -90 0 0 483 c0 265 -5 536 -10 602 -10 114 -37
305 -46 314 -11 11 -11 -9 -3 -54 36 -183 39 -275 39 -1032 l0 -753 -115 0
-115 0 0 198 c0 167 -3 201 -16 221 -15 21 -16 72 -11 540 6 497 14 654 42
789 7 34 9 62 5 62 -10 0 -16 -25 -30 -130 -7 -47 -16 -105 -20 -130 -7 -43
-8 -42 -9 25 -2 139 -36 543 -66 790 -8 66 -15 125 -15 133 0 7 -4 11 -8 8 -5
-3 -3 -54 5 -113 58 -472 74 -764 80 -1395 5 -555 5 -568 -14 -568 -10 0 -24
-5 -29 -10 -7 -7 -124 -9 -330 -8 l-319 3 1 495 c1 510 15 830 54 1285 20 237
23 292 15 284 -16 -16 -84 -997 -85 -1216 0 -20 -5 -23 -35 -23 -30 0 -35 3
-35 23 0 245 -67 1197 -85 1215 -8 8 -6 -55 5 -145 32 -286 56 -750 71 -1390
9 -402 9 -506 -1 -518 -11 -13 -58 -15 -324 -15 -229 0 -319 3 -339 13 l-27
12 0 540 c0 642 18 968 75 1394 16 126 18 147 9 138 -17 -17 -69 -506 -86
-812 l-13 -220 -11 110 c-19 180 -26 225 -36 225 -6 0 -7 -15 -4 -36 33 -175
39 -274 43 -803 3 -384 2 -546 -6 -554 -7 -7 -11 -71 -11 -176 0 -92 -3 -196
-7 -234 l-6 -67 -103 0 -104 0 0 29 c0 17 -4 33 -10 36 -14 8 -13 1393 0 1545
6 63 17 153 25 199 13 75 13 103 1 90 -8 -9 -37 -239 -46 -372 -5 -78 -10
-341 -10 -584 l0 -443 -90 0 -90 0 0 941 c0 629 -3 947 -10 960 -12 21 -58 26
-65 7 -4 -12 -153 -1249 -175 -1450 -24 -229 -10 -437 36 -535 20 -41 32 -41
69 -3 16 16 32 30 36 30 4 0 19 -34 34 -75 15 -41 31 -73 35 -70 4 3 13 35 20
72 22 118 17 113 115 113 l85 0 0 -208 c0 -114 -4 -212 -9 -218 -5 -5 -14
-128 -20 -273 -6 -145 -13 -266 -14 -268 -7 -6 -651 57 -658 65 -4 4 -34 84
-68 179 l-60 171 226 959 c202 854 226 968 228 1053 2 52 7 299 13 548 6 249
8 663 5 920 l-6 467 46 22 c32 16 53 35 72 67 15 25 97 219 184 430 86 212
160 388 163 391 10 11 59 -214 83 -384 51 -362 60 -543 60 -1269 0 -369 3
-672 6 -672 4 0 10 170 14 378 12 602 -12 1199 -65 1572 -20 136 -64 352 -77
373 -3 6 -5 68 -4 139 1 71 -2 135 -7 141 -5 7 -12 289 -16 657 -7 656 -2 836
28 910 8 19 20 80 26 135 17 135 69 336 131 503 38 104 344 757 365 781 8 9
15 -10 39 -123 59 -272 85 -632 85 -1178 0 -222 3 -309 12 -314 13 -8 5 647
-12 941 -15 246 -59 552 -96 656 -7 21 -11 54 -8 75 2 22 9 228 14 459 12 440
35 973 43 982 12 12 126 35 210 42 100 8 186 5 287 -10z m-1135 -3749 c0 -413
-2 -750 -4 -750 -2 0 -87 27 -190 59 -102 33 -252 80 -332 105 l-146 46 -58
164 -57 165 57 70 c49 60 62 71 89 71 28 1 49 22 246 261 118 143 216 266 218
273 2 7 -4 18 -12 25 -13 11 0 31 87 137 56 68 102 124 102 124 0 0 0 -338 0
-750z m2004 629 c93 -111 100 -123 86 -139 -8 -9 -15 -20 -15 -25 0 -4 99
-126 221 -271 203 -243 224 -264 253 -264 27 0 39 -10 87 -71 l56 -72 -49
-141 c-27 -77 -55 -152 -61 -165 -10 -20 -58 -38 -346 -128 -183 -57 -334
-103 -336 -101 -2 2 1 251 7 553 9 506 6 831 -9 913 -3 17 -3 32 0 32 3 0 51
-55 106 -121z m-2257 -243 c-279 -341 -369 -445 -380 -443 -7 1 -13 6 -13 10
-1 5 97 127 216 273 175 214 220 263 231 253 11 -9 1 -26 -54 -93z m2592 -164
c119 -145 216 -268 216 -273 0 -32 -54 23 -250 256 -164 196 -215 263 -207
273 5 7 13 11 18 10 4 -2 104 -121 223 -266z m-5347 -1249 l53 -17 0 -146 c0
-384 -13 -810 -25 -800 -19 15 -120 216 -154 305 -82 212 -121 466 -90 579 6
22 24 52 39 68 23 23 37 28 76 28 26 0 71 -8 101 -17z m8093 -11 c16 -16 34
-49 40 -73 26 -94 -10 -345 -75 -529 -33 -93 -150 -333 -170 -350 -13 -11 -15
40 -15 468 l0 480 43 15 c23 9 66 16 95 16 46 1 58 -3 82 -27z m-7865 -72
c130 -48 495 -183 1108 -409 177 -66 486 -180 687 -254 418 -154 442 -163 493
-172 l37 -7 0 -170 c0 -132 -3 -169 -12 -165 -7 3 -49 21 -93 40 -216 94
-2240 963 -2305 991 l-75 32 -3 88 c-3 82 -1 88 15 81 10 -3 76 -28 148 -55z
m7623 -115 c-3 -1 -2461 -1056 -2479 -1063 -10 -4 -12 172 -3 269 l7 66 46 11
c25 6 582 209 1236 450 l1190 439 3 -85 c2 -46 2 -85 0 -87z m-6763 -453 c550
-236 1104 -474 1230 -529 l230 -99 3 -492 c1 -271 0 -492 -3 -492 -2 0 -460
285 -1017 633 -557 348 -1115 696 -1240 772 l-227 140 -1 254 c0 199 3 252 13
248 6 -3 462 -198 1012 -435z m6763 -67 c-2 -1 -559 -349 -1238 -773 l-1235
-772 -7 188 c-5 103 -7 324 -5 492 l2 304 1240 532 1240 532 3 -250 c1 -138 1
-252 0 -253z m-7323 -302 l430 -268 3 -65 c1 -36 -1 -119 -5 -186 l-8 -121
-442 336 -442 336 0 128 c-1 119 0 127 17 118 9 -6 211 -131 447 -278z m7324
160 l0 -128 -424 -325 c-234 -179 -434 -331 -445 -339 -20 -13 -20 -12 -20
175 l1 189 442 277 c243 153 443 278 445 278 1 0 2 -57 1 -127z m-6092 -929
c428 -268 781 -489 785 -493 9 -8 -10 -553 -20 -562 -4 -4 -140 94 -302 217
-162 123 -510 387 -772 586 l-478 362 0 188 c0 103 2 188 4 188 2 0 354 -219
783 -486z m5192 241 l0 -130 -777 -586 c-707 -534 -778 -584 -785 -565 -5 11
-9 140 -10 285 l-2 264 780 488 780 487 6 -56 c4 -31 7 -115 8 -187z m-4231
-1275 l3 -415 -83 -302 c-46 -167 -86 -303 -89 -303 -3 0 -12 24 -19 53 -11
49 -6 105 64 697 42 355 79 655 82 668 3 15 11 22 22 20 16 -3 17 -36 20 -418z
m2516 411 c3 -5 28 -204 56 -442 110 -949 104 -882 89 -945 l-14 -56 -88 308
-88 309 1 412 c0 412 1 419 32 422 4 1 9 -3 12 -8z m-2583 -1566 c-46 -105
-71 -151 -74 -139 -3 11 -9 67 -12 125 l-7 106 78 285 79 286 3 -253 2 -253
-69 -157z m2696 -32 c-6 -68 -13 -123 -17 -123 -3 0 -35 70 -72 156 l-68 155
1 257 0 257 84 -289 83 -289 -11 -124z m-1360 365 c-4 -66 -7 -246 -7 -400 l0
-278 -25 0 -25 0 0 278 c0 154 -3 334 -7 400 l-6 122 38 0 38 0 -6 -122z
m-1437 -343 c5 -60 9 -182 9 -270 l-1 -160 -24 51 c-43 92 -54 295 -27 524 l7
55 13 -45 c7 -25 18 -94 23 -155z m2871 30 c19 -207 0 -358 -55 -437 -15 -21
-16 -12 -16 130 0 156 11 298 32 410 16 83 23 62 39 -103z m-2768 -362 l-68
-63 -3 104 -3 103 68 155 68 154 3 -195 3 -196 -68 -62z m2675 41 l-3 -103
-67 60 -68 61 0 201 0 202 70 -159 71 -159 -3 -103z m-2599 -31 c0 -16 -8 -59
-18 -98 l-17 -70 -22 65 -22 64 32 33 c39 40 48 41 47 6z m2499 -6 l32 -33
-22 -64 -22 -65 -17 70 c-19 77 -23 125 -11 125 4 0 22 -15 40 -33z m-1338
-107 l0 -60 -300 0 c-232 0 -302 3 -305 13 -2 6 -5 33 -8 60 l-5 47 309 0 309
0 0 -60z m746 29 c-3 -17 -6 -44 -6 -60 l0 -29 -299 0 c-334 0 -311 -6 -311
76 l0 44 311 0 312 0 -7 -31z m-760 -196 c-4 -48 -9 -90 -12 -94 -2 -5 -128
-8 -278 -9 l-274 -1 -7 53 c-3 29 -9 72 -12 96 l-5 42 297 0 298 0 -7 -87z
m740 -5 l-11 -93 -277 -2 -277 -3 -5 28 c-3 15 -8 57 -12 95 l-6 67 299 0 299
0 -10 -92z m-753 -155 c-2 -27 -6 -66 -9 -88 l-4 -40 -260 3 -259 3 -6 47 c-3
26 -8 64 -10 85 l-5 37 279 0 279 0 -5 -47z m733 -15 c-4 -35 -10 -74 -13 -88
l-4 -25 -258 3 -258 3 -7 46 c-3 25 -6 63 -6 84 l0 39 276 0 277 0 -7 -62z
m374 -271 c0 -191 -3 -266 -12 -275 -8 -8 -47 -12 -110 -12 l-98 0 0 153 c0
85 -3 209 -7 275 l-6 122 116 0 117 0 0 -263z m-1808 178 c-8 -75 -74 -255
-94 -255 -13 0 -52 91 -77 181 -33 116 -37 110 77 107 l97 -3 -3 -30z m1782
-502 c-22 -106 -77 -253 -94 -253 -7 0 -63 116 -75 157 -3 12 -10 45 -14 73
l-8 50 99 0 98 0 -6 -27z"/>
<path d="M4360 10377 c-25 -12 -25 -14 -28 -162 -3 -143 -2 -151 19 -167 28
-23 61 -23 90 1 22 18 24 28 27 132 4 131 -6 181 -43 197 -32 15 -34 15 -65
-1z m74 -23 c9 -8 16 -26 16 -40 0 -22 -3 -24 -55 -24 -49 0 -55 2 -55 21 0
54 57 80 94 43z m5 -290 c-14 -17 -71 -18 -87 -2 -8 8 -12 47 -12 109 l0 98
53 3 52 3 3 -99 c2 -64 -1 -103 -9 -112z"/>
<path d="M4183 10041 c-73 -53 -123 -193 -142 -402 -6 -62 -9 -114 -7 -116 1
-2 23 4 47 14 62 23 266 23 328 0 24 -9 45 -17 48 -17 5 0 -6 138 -18 225 -21
145 -77 266 -141 305 -45 27 -68 25 -115 -9z"/>
<path d="M4125 9486 c-97 -24 -95 -21 -95 -149 1 -172 48 -609 84 -766 14 -64
23 -69 131 -69 115 0 118 2 137 93 36 167 70 457 84 725 l7 126 -39 17 c-87
38 -212 47 -309 23z"/>
<path d="M4050 7015 c0 -1103 3 -1665 10 -1665 7 0 10 562 10 1665 0 1103 -3
1665 -10 1665 -7 0 -10 -562 -10 -1665z"/>
<path d="M4420 7015 c0 -1103 3 -1665 10 -1665 7 0 10 562 10 1665 0 1103 -3
1665 -10 1665 -7 0 -10 -562 -10 -1665z"/>
<path d="M3796 8187 c-9 -7 -21 -30 -26 -52 -5 -22 -10 -289 -10 -592 l0 -553
67 0 66 0 -6 103 c-3 56 -16 323 -28 592 -15 327 -26 494 -33 503 -10 10 -15
10 -30 -1z m28 -94 c3 -49 9 -154 12 -235 l7 -148 -32 0 -31 0 0 209 c0 197 7
261 28 261 5 0 12 -39 16 -87z m17 -397 c0 -1 6 -106 12 -234 l12 -232 -27 0
c-60 0 -58 -8 -58 239 l0 227 30 0 c17 0 30 0 31 0z m15 -484 c7 -4 13 -49 16
-109 l4 -103 -48 0 -48 0 0 110 0 110 33 0 c17 0 37 -4 43 -8z"/>
<path d="M4687 7903 c-4 -3 -7 -70 -7 -149 0 -163 -7 -154 107 -154 90 0 93 6
93 151 0 66 -5 129 -10 140 -9 16 -22 19 -94 19 -45 0 -86 -3 -89 -7z m175
-23 c2 -5 2 -66 0 -135 l-3 -126 -82 3 -82 3 -3 133 -3 132 85 0 c46 0 86 -4
88 -10z"/>
<path d="M4680 7130 l0 -240 50 0 50 0 0 240 0 240 -50 0 -50 0 0 -240z m80 0
l0 -230 -35 0 -35 0 0 230 0 230 35 0 35 0 0 -230z"/>
</g>
</svg>
